<?xml version="1.0" encoding="UTF-8"?>
<svg id="Layer_1" xmlns="http://www.w3.org/2000/svg" version="1.1" viewBox="0 0 64 64">
  <!-- Generator: Adobe Illustrator 30.2.1, SVG Export Plug-In . SVG Version: 2.1.1 Build 1)  -->
  <path d="M32,0C14.33,0,0,14.33,0,32s14.33,32,32,32,32-14.33,32-32S49.67,0,32,0ZM30.27,52.66c0,2.12-1.72,3.85-3.85,3.85h-3.84c-2.12,0-3.85-1.72-3.85-3.85V11.49c0-2.12,1.72-3.85,3.85-3.85h3.84c2.12,0,3.85,1.72,3.85,3.85v41.17ZM46.22,52.66c0,2.12-1.72,3.85-3.85,3.85h-3.84c-2.12,0-3.85-1.72-3.85-3.85v-22.51c0-2.12,1.72-3.85,3.85-3.85,4.25,0,7.69,3.44,7.69,7.69v18.67Z" fill="#fff"/>
</svg>